<svg width="67" height="67" viewBox="0 0 67 67" fill="none" xmlns="http://www.w3.org/2000/svg">
<path opacity="0.4" d="M6.30273 16.707C6.30273 10.6319 11.2276 5.70703 17.3027 5.70703H50.3027C56.3778 5.70703 61.3027 10.6319 61.3027 16.707V49.707C61.3027 55.7821 56.3778 60.707 50.3027 60.707H17.3027C11.2276 60.707 6.30273 55.7821 6.30273 49.707V16.707Z" fill="#F065A5"/>
<path d="M22.8027 5.70703H44.8027V26.568C44.8027 29.018 41.8407 30.245 40.1082 28.5125L35.7473 24.1516C34.6734 23.0776 32.9321 23.0776 31.8582 24.1516L27.4973 28.5125C25.7649 30.245 22.8027 29.018 22.8027 26.568V5.70703Z" fill="#F065A5"/>
<path d="M52.64 43.1049L51.5717 44.2072L50.5039 43.1049C47.5541 40.0614 42.7718 40.0614 39.8224 43.1049C36.873 46.1488 36.873 51.0836 39.8224 54.1271L47.2995 61.8422C49.6592 64.2772 53.4847 64.2772 55.8444 61.8422L63.3211 54.1271C66.2709 51.0836 66.2709 46.1488 63.3211 43.1049C60.3717 40.0614 55.5894 40.0614 52.64 43.1049Z" fill="#F065A5"/>
</svg>
