<svg width="112" height="118" viewBox="0 0 112 118" fill="none" xmlns="http://www.w3.org/2000/svg">
<g id="Layer_1" clip-path="url(#clip0_1429_66128)">
<path id="Vector" d="M111.944 76.7103C99.5205 57.6122 100.456 59.0302 99.985 58.3793C100.269 57.9667 99.3615 59.3542 111.666 40.4425C90.6973 32.4109 92.1734 32.9732 91.6752 32.799C91.6752 31.9708 91.7394 33.508 90.5781 10.9411C68.6469 16.8365 70.2208 16.4025 69.4476 16.6501C69.1542 16.265 69.2673 16.4087 66.804 13.3647L64.1421 15.5163C66.5503 18.496 68.98 20.9777 70.3461 26.3902C71.9659 32.8143 70.7281 39.8802 67.0026 45.2957L65.9758 46.7871C63.5369 44.7242 60.6427 43.5384 57.7088 43.2114V28.0374H54.2859V43.2145C51.2297 43.5629 48.3324 44.8098 46.0158 46.781L44.995 45.2957C39.3503 37.0838 39.6956 25.6322 45.6002 18.3096L56.0004 5.44001L57.6813 7.51822L60.3463 5.36666L55.9973 0C41.5599 17.8603 42.9932 16.0786 42.5532 16.6532C41.7738 16.4025 43.3111 16.8274 21.4196 10.9411C20.2552 33.5355 20.3225 31.9738 20.3225 32.799C19.8243 32.9732 21.331 32.4017 0.328894 40.4425C12.6331 59.3542 11.7254 57.9697 12.0096 58.3793C11.5298 59.0394 12.4344 57.6763 0.0507812 76.7103C21.2882 84.8428 19.7296 84.259 20.5058 84.5097C20.5211 85.2034 20.4111 82.9632 21.5938 105.885L31.0619 103.339L30.1726 100.032L24.7967 101.478C23.8676 83.4675 23.889 84.4516 23.9349 83.2902C24.1091 78.4156 26.1476 73.1956 29.977 69.0117C36.2024 69.84 40.313 68.3883 43.4456 67.4592C44.0812 68.3516 44.8086 69.1737 45.6155 69.9102L36.6945 82.19L39.4634 84.204L48.3844 71.9243C49.1729 72.3735 50.0072 72.7556 50.8813 73.0642L52.0212 69.8369C48.2957 68.5227 45.4596 65.4666 44.4297 61.6586C41.6546 51.3928 52.7394 42.8477 61.963 48.138C63.1457 48.8195 64.2062 49.7089 64.9581 50.5738C65.5112 51.1942 66.0002 51.8757 66.4159 52.6031C71.1713 60.9892 64.5974 71.2183 55.0774 70.4848L54.8146 73.8986C55.652 73.9628 56.4099 73.9566 57.1709 73.8986C57.1098 76.2946 57.2106 80.5305 54.4784 85.7749C51.4589 91.5939 46.2267 95.732 40.7745 97.1867L33.4855 99.1457L34.3748 102.453C42.3851 100.298 41.8136 100.454 42.2628 100.322C42.7518 100.992 41.7769 99.7661 56.0004 117.361C70.2147 99.7753 69.2489 100.989 69.7349 100.322C70.1994 100.463 68.5888 100.023 90.4039 105.888C91.5866 82.9724 91.4766 85.2034 91.4919 84.5127C92.259 84.2621 90.6789 84.855 111.947 76.7133L111.944 76.7103ZM106.764 75.0263C106.666 75.063 91.3941 80.9125 91.2963 80.9492C90.7186 76.5605 88.8819 72.0649 85.8502 68.2293C90.5536 66.9091 94.6764 64.3602 97.7326 61.1421L106.764 75.0263ZM87.3752 15.3482C87.3782 15.4154 88.2248 31.821 88.2279 31.8882C83.9614 31.0967 79.1174 31.4054 74.4475 33.1352C74.6431 28.2239 73.4756 23.5174 71.3791 19.6482C71.6358 19.5779 87.1215 15.4154 87.3752 15.3482ZM74.0135 37.0165C79.7408 34.4065 86.006 34.2996 91.0334 36.2097L106.486 42.1265L97.4606 55.9985C94.4166 60.6897 88.9124 64.4152 82.3691 65.5063C76.5746 66.4782 72.5863 65.0906 70.2422 64.3938C71.4158 61.5577 71.7092 58.4587 71.0826 55.43L85.5201 50.7388L84.4626 47.4809L70.0283 52.1721C69.576 51.1667 69.0197 50.2223 68.3688 49.3452C70.068 46.8788 72.8522 43.3 74.0105 37.0165H74.0135ZM24.6225 15.3482L40.6186 19.6482C38.522 23.5143 37.3515 28.2178 37.5502 33.1352C32.9048 31.4145 28.0607 31.0936 23.7698 31.8882C23.7729 31.8118 24.6195 15.4215 24.6225 15.3482ZM20.7014 80.9523C20.0505 80.7016 5.53052 75.1424 5.23407 75.0294L14.2651 61.1451C17.3152 64.3541 21.438 66.9121 26.1476 68.2324C23.1189 72.0618 21.2821 76.5575 20.7014 80.9523ZM40.0135 64.9073C33.8522 66.7349 26.7313 65.8516 20.9979 62.2453C18.1709 60.4666 16.0194 58.2876 14.531 55.9954L5.50607 42.1265C22.3732 35.6687 21.4441 35.9927 22.5351 35.6871C27.2294 34.3454 32.8284 34.6694 37.978 37.0165C39.1272 43.2573 41.8686 46.8055 43.6228 49.3513C42.9596 50.2467 42.4279 51.1422 41.9603 52.1721L27.5259 47.4809L26.4685 50.7357L40.8998 55.4239C40.2977 58.3365 40.5422 61.463 41.7463 64.3908L40.0104 64.9042L40.0135 64.9073ZM55.9973 111.911L45.5849 99.0296C49.4938 97.1623 53.2376 94.0663 55.9973 89.9222C58.7479 94.0511 62.4856 97.1562 66.4097 99.0296C66.4097 99.0296 55.9973 111.908 55.9973 111.911ZM87.201 101.481L71.2202 97.1836C66.0919 95.8145 61.0492 92.034 57.9288 86.5237C60.6458 80.8422 60.5327 76.4322 60.6152 73.2293C61.6696 72.8992 62.6751 72.4622 63.6194 71.9273L72.5374 84.204L75.3063 82.19L66.3884 69.9133C67.1891 69.1798 67.9195 68.3608 68.5552 67.4592C71.483 68.3271 75.6761 69.8552 82.0238 69.0117C85.7737 73.1131 87.8856 78.3025 88.0659 83.2933C88.1087 84.4485 88.1301 83.4675 87.204 101.475L87.201 101.481Z" fill="white"/>
<path id="Vector_2" d="M59.8428 10.1556L62.5078 8.00098L64.6715 10.6782L62.0096 12.8328L59.8458 10.1556H59.8428Z" fill="white"/>
<path id="Vector_3" d="M64.5583 58.5321C64.5583 53.8103 60.7197 49.9717 55.9979 49.9717C51.2761 49.9717 47.4375 53.8103 47.4375 58.5321C47.4375 63.2539 51.2761 67.0924 55.9979 67.0924C60.7197 67.0924 64.5583 63.2539 64.5583 58.5321ZM50.8635 58.5321C50.8635 55.699 53.1678 53.3946 56.0009 53.3946C58.834 53.3946 61.1353 55.699 61.1353 58.5321C61.1353 61.3651 58.831 63.6665 56.0009 63.6665C53.1709 63.6665 50.8635 61.3621 50.8635 58.5321Z" fill="white"/>
<path id="Vector_4" d="M61.1104 20.3232H57.6875V23.6942H61.1104V20.3232Z" fill="white"/>
<path id="Vector_5" d="M54.3077 20.2412H50.8848V23.6641H54.3077V20.2412Z" fill="white"/>
</g>
<defs>
<clipPath id="clip0_1429_66128">
<rect width="111.89" height="117.358" fill="white" transform="translate(0.0546875)"/>
</clipPath>
</defs>
</svg>
