<svg width="47" height="30" viewBox="0 0 47 30" fill="none" xmlns="http://www.w3.org/2000/svg">
<path fill-rule="evenodd" clip-rule="evenodd" d="M23.8559 25.7352C21.4046 27.853 18.2249 29.1315 14.7504 29.1315C6.99771 29.1315 0.712891 22.7663 0.712891 14.9144C0.712891 7.06249 6.99771 0.697266 14.7504 0.697266C18.2249 0.697266 21.4046 1.97575 23.8559 4.09356C26.3071 1.97575 29.4868 0.697266 32.9613 0.697266C40.714 0.697266 46.9989 7.06249 46.9989 14.9144C46.9989 22.7663 40.714 29.1315 32.9613 29.1315C29.4868 29.1315 26.3071 27.853 23.8559 25.7352Z" fill="#ED0006"/>
<path fill-rule="evenodd" clip-rule="evenodd" d="M23.8564 25.7343C26.8741 23.1267 28.7875 19.2468 28.7875 14.9144C28.7875 10.5819 26.8741 6.70211 23.8564 4.09443C26.3078 1.9761 29.4879 0.697266 32.9629 0.697266C40.7156 0.697266 47.0004 7.06249 47.0004 14.9144C47.0004 22.7663 40.7156 29.1315 32.9629 29.1315C29.4879 29.1315 26.3078 27.8527 23.8564 25.7343Z" fill="#F9A000"/>
<path fill-rule="evenodd" clip-rule="evenodd" d="M23.8559 25.7354C26.8742 23.1277 28.788 19.2475 28.788 14.9146C28.788 10.5816 26.8742 6.70143 23.8559 4.09375C20.8377 6.70143 18.9238 10.5816 18.9238 14.9146C18.9238 19.2475 20.8377 23.1277 23.8559 25.7354Z" fill="#EF5B0C"/>
</svg>
