<svg width="91" height="36" viewBox="0 0 91 36" fill="none" xmlns="http://www.w3.org/2000/svg">
<path d="M83.1067 35.5479H7.75126C3.94178 35.5479 0.845703 32.4518 0.845703 28.633V6.93583C0.845703 3.12635 3.94178 0.0302734 7.75126 0.0302734H83.1067C86.9256 0.0302734 90.0123 3.12635 90.0123 6.93583V28.6342C90.0123 32.4518 86.9162 35.5479 83.1067 35.5479Z" fill="url(#paint0_linear_1430_72102)"/>
<path d="M78.0124 11.2979L73.2482 29.5077L73.2295 29.544H76.9511L81.7329 11.2979H78.0124Z" fill="#292929"/>
<path d="M19.0015 21.6564C18.5107 21.9153 17.8418 22.0664 17.2081 22.0664C15.8703 22.0664 15.1112 21.852 15.0316 20.7731V20.7017C15.0316 20.6572 15.0222 20.6126 15.0222 20.5681V17.4275L15.0316 17.0527V14.8317H15.0222V13.8863L15.0316 13.5115V11.3689L11.7129 11.8059C13.9609 11.3689 15.2459 9.59304 15.2459 7.82653V6.73828H11.5161V11.8328L11.3018 11.8949V21.3342C11.4271 23.984 13.1749 25.5631 16.039 25.5631C17.0558 25.5631 18.171 25.3311 19.0273 24.9469L19.0449 24.9376V21.6271L19.0015 21.6564Z" fill="#292929"/>
<path d="M19.5905 10.6113L9.125 12.2256V14.8753L19.5905 13.2611V10.6113Z" fill="#292929"/>
<path d="M19.5905 14.4922L9.125 16.1064V18.6402L19.5905 17.026V14.4922Z" fill="#292929"/>
<path d="M31.3243 15.7142C31.1732 12.7704 29.3352 11.0215 26.3363 11.0215C24.6143 11.0215 23.1864 11.6904 22.2235 12.9485C21.2594 14.2066 20.751 16.0528 20.751 18.2925C20.751 20.5323 21.2594 22.3878 22.2235 23.6366C23.1875 24.8947 24.6143 25.5636 26.3363 25.5636C29.334 25.5636 31.1814 23.8064 31.3243 20.8439V25.2871H35.0541V11.3237L31.3243 11.8942M31.5199 18.2925C31.5199 20.9071 30.1458 22.5928 28.0314 22.5928C25.8455 22.5928 24.5429 20.9868 24.5429 18.2925C24.5429 15.5889 25.8455 13.9653 28.0314 13.9653C29.0927 13.9653 29.9853 14.3753 30.6015 15.1613C31.1989 15.938 31.5199 17.0168 31.5199 18.2925Z" fill="#292929"/>
<path d="M45.9297 11.0202C42.9226 11.0202 41.0846 12.7692 40.9417 15.7223V7.26465L37.2119 7.83513V25.287H40.9417V20.8438C41.0846 23.8064 42.9308 25.5635 45.9297 25.5635C49.4451 25.5635 51.542 22.8423 51.542 18.2924C51.542 13.7426 49.4439 11.0202 45.9297 11.0202ZM44.2334 22.5916C42.1096 22.5916 40.7449 20.9059 40.7449 18.2913C40.7449 17.0156 41.0659 15.9355 41.6633 15.1683C42.2795 14.3834 43.171 13.9722 44.2334 13.9722C46.4193 13.9722 47.7219 15.5876 47.7219 18.2995C47.7219 20.9856 46.4193 22.5916 44.2334 22.5916Z" fill="#292929"/>
<path d="M61.6855 11.0202C58.6785 11.0202 56.8405 12.7692 56.6976 15.7223V7.26465L52.9678 7.83513V25.287H56.6976V20.8438C56.8405 23.8064 58.6867 25.5635 61.6855 25.5635C65.201 25.5635 67.2978 22.8423 67.2978 18.2924C67.2978 13.7426 65.201 11.0202 61.6855 11.0202ZM59.9987 22.5916C57.8749 22.5916 56.5102 20.9059 56.5102 18.2913C56.5102 17.0156 56.8311 15.9355 57.4286 15.1683C58.0447 14.3834 58.9362 13.9722 59.9987 13.9722C62.1846 13.9722 63.4872 15.5876 63.4872 18.2995C63.4872 20.9856 62.1846 22.5916 59.9987 22.5916Z" fill="#292929"/>
<path d="M67.3057 11.2979H71.285L74.524 25.2694H70.9547L67.3057 11.2979Z" fill="#292929"/>
<defs>
<linearGradient id="paint0_linear_1430_72102" x1="0.845914" y1="17.7891" x2="90.0121" y2="17.7891" gradientUnits="userSpaceOnUse">
<stop stop-color="#3BFF9D"/>
<stop offset="1" stop-color="#3BFFC8"/>
</linearGradient>
</defs>
</svg>
