<svg width="10" height="10" viewBox="0 0 10 10" fill="none" xmlns="http://www.w3.org/2000/svg">
<path id="Vector" d="M5.16655 9.71434C4.49876 9.71434 3.87603 9.59856 3.30247 9.36701C2.7289 9.13546 2.23727 8.81295 1.81939 8.4036C1.4056 7.99425 1.08195 7.51048 0.848427 6.95228C0.614904 6.39408 0.496094 5.78626 0.496094 5.12883C0.496094 4.47139 0.614904 3.87598 0.848427 3.31778C1.08195 2.75958 1.4056 2.27994 1.81939 1.87473C2.23318 1.46952 2.7289 1.15114 3.30247 0.919588C3.87603 0.688039 4.49466 0.572266 5.16655 0.572266C5.83845 0.572266 6.47346 0.688039 7.05113 0.919588C7.62879 1.15114 8.12861 1.46952 8.55059 1.87473C8.97257 2.27994 9.30442 2.75958 9.54204 3.31778C9.77966 3.87598 9.89847 4.47966 9.89847 5.12883C9.89847 5.778 9.77966 6.39408 9.54204 6.95228C9.30442 7.51048 8.97257 7.99425 8.55059 8.4036C8.12861 8.81295 7.62879 9.13546 7.05113 9.36701C6.47346 9.59856 5.84664 9.71434 5.16655 9.71434ZM5.16655 9.15614C5.74422 9.15614 6.28501 9.0569 6.79302 8.86257C7.29694 8.66823 7.73531 8.39533 8.10403 8.03974C8.47275 7.68414 8.76363 7.26239 8.97667 6.77449C9.18971 6.28658 9.29622 5.74492 9.29622 5.15364C9.29622 4.56236 9.18971 4.04964 8.98076 3.5576C8.77182 3.06969 8.48504 2.64381 8.11632 2.27994C7.7476 1.91608 7.31333 1.63491 6.80941 1.43231C6.30959 1.2297 5.7606 1.12633 5.16655 1.12633C4.5725 1.12633 4.03991 1.2297 3.54009 1.43231C3.04436 1.63491 2.61009 1.92021 2.24957 2.27994C1.88494 2.64381 1.60226 3.06969 1.39741 3.5576C1.19257 4.04964 1.09014 4.57476 1.09014 5.14123C1.09014 5.7077 1.19257 6.23696 1.39741 6.72487C1.60226 7.21278 1.88904 7.63866 2.24957 7.99839C2.61419 8.35812 3.04436 8.63929 3.54009 8.84603C4.03581 9.05277 4.5807 9.15614 5.16655 9.15614ZM5.26898 8.1183C4.83471 8.1183 4.42911 8.04387 4.0522 7.89502C3.67528 7.74617 3.34753 7.53943 3.07304 7.2748C2.79855 7.01017 2.58141 6.69179 2.42573 6.32379C2.27005 5.95579 2.19221 5.55885 2.19221 5.12883C2.19221 4.7567 2.25366 4.39283 2.38067 4.0331C2.50767 3.67337 2.69203 3.355 2.94604 3.06969C3.19595 2.78853 3.51141 2.55698 3.89242 2.38745C4.27343 2.21379 4.7159 2.12696 5.21572 2.12696C5.84254 2.12696 6.38743 2.26341 6.84628 2.54044C7.30513 2.81334 7.64518 3.19374 7.86231 3.67338L6.53082 4.1034C6.45708 3.95041 6.36695 3.82636 6.26043 3.72299C6.15391 3.61962 6.04329 3.54519 5.92858 3.48731C5.80977 3.43355 5.69096 3.39221 5.56395 3.3674C5.43695 3.34259 5.32224 3.33019 5.21162 3.33019C4.95352 3.33019 4.71999 3.3798 4.52334 3.48318C4.32259 3.58241 4.15462 3.71886 4.01533 3.88425C3.87603 4.04964 3.77361 4.23985 3.69987 4.45899C3.63022 4.67814 3.59335 4.90141 3.59335 5.12883C3.59335 5.41413 3.64251 5.67049 3.73674 5.89377C3.83097 6.11705 3.96207 6.30725 4.11775 6.4561C4.27753 6.60909 4.45369 6.72487 4.65035 6.80343C4.847 6.88199 5.04365 6.92334 5.2362 6.92334C5.49431 6.92334 5.75651 6.85305 6.01461 6.71246C6.27272 6.57188 6.46117 6.37754 6.57998 6.12532L7.92377 6.53053C7.84183 6.72487 7.71892 6.91507 7.55914 7.10527C7.39936 7.29547 7.20681 7.465 6.98148 7.61385C6.75615 7.76271 6.49805 7.88262 6.21126 7.97358C5.92038 8.06455 5.60492 8.11417 5.26488 8.11417" fill="white"/>
</svg>
